<?xml version="1.0" encoding="UTF-8" standalone="no"?>
<!-- Created with Inkscape (http://www.inkscape.org/) -->

<svg
   width="32"
   height="32"
   viewBox="0 0 8.4666666 8.4666666"
   version="1.1"
   id="svg5"
   inkscape:version="1.2.2 (b0a8486541, 2022-12-01, custom)"
   sodipodi:docname="spelling.svg"
   xmlns:inkscape="http://www.inkscape.org/namespaces/inkscape"
   xmlns:sodipodi="http://sodipodi.sourceforge.net/DTD/sodipodi-0.dtd"
   xmlns="http://www.w3.org/2000/svg"
   xmlns:svg="http://www.w3.org/2000/svg">
  <sodipodi:namedview
     id="namedview7"
     pagecolor="#ffffff"
     bordercolor="#666666"
     borderopacity="1.0"
     inkscape:showpageshadow="2"
     inkscape:pageopacity="0.0"
     inkscape:pagecheckerboard="0"
     inkscape:deskcolor="#d1d1d1"
     inkscape:document-units="mm"
     showgrid="false"
     inkscape:zoom="15.884269"
     inkscape:cx="25.654312"
     inkscape:cy="25.024759"
     inkscape:window-width="1846"
     inkscape:window-height="1016"
     inkscape:window-x="0"
     inkscape:window-y="0"
     inkscape:window-maximized="1"
     inkscape:current-layer="text956" />
  <defs
     id="defs2" />
  <g
     inkscape:label="Layer 1"
     inkscape:groupmode="layer"
     id="layer1">
    <g
       aria-label="S"
       id="text956"
       style="font-size:5.33299px;line-height:1.25;stroke-width:0.133325">
      <path
         d="m 4.2985412,6.2089408 q -0.3893083,0 -0.7039547,-0.1333247 Q 3.285273,5.9422913 3.1039514,5.6916408 2.9226297,5.4409902 2.9172967,5.0996789 h 0.7999485 q 0.015999,0.2293185 0.1599897,0.3626433 0.1493238,0.1333247 0.4053073,0.1333247 0.2613165,0 0.4106402,-0.1226587 0.1493238,-0.1279918 0.1493238,-0.3306454 0,-0.1653227 -0.1013268,-0.2719825 Q 4.6398525,4.7637005 4.4851958,4.7050376 4.3358721,4.6410417 4.0692226,4.5663798 3.7065793,4.45972 3.4772607,4.3583932 3.2532751,4.2517334 3.0879524,4.0437468 2.9279627,3.8304272 2.9279627,3.4784498 q 0,-0.3306453 0.1653227,-0.5759629 Q 3.2586081,2.6571694 3.5572555,2.5291776 3.855903,2.3958528 4.2398783,2.3958528 q 0.5759629,0 0.9332733,0.2826485 0.3626433,0.2773155 0.3999742,0.7786166 H 4.7518453 Q 4.7411794,3.2651302 4.5865226,3.1424715 4.4371989,3.0144797 4.1865484,3.0144797 q -0.2186526,0 -0.3519774,0.1119928 -0.1279917,0.1119928 -0.1279917,0.3253124 0,0.1493237 0.095994,0.2506505 0.1013268,0.095994 0.2453175,0.1599897 0.1493238,0.058663 0.4159733,0.1386578 0.3626433,0.1066598 0.5919619,0.2133196 0.2293186,0.1066598 0.3946412,0.3199794 0.1653227,0.2133196 0.1653227,0.559964 0,0.2986474 -0.1546567,0.5546309 Q 5.3064763,5.9049604 5.0078289,6.0596171 4.7091814,6.2089408 4.2985412,6.2089408 Z"
         style="font-weight:600;font-family:Poppins;-inkscape-font-specification:'Poppins Semi-Bold'"
         id="path399" />
    </g>
    <path
       sodipodi:type="star"
       style="fill:none;stroke:#000000;stroke-width:0.742;stroke-miterlimit:5.7;stroke-dasharray:none;stroke-opacity:1;paint-order:stroke fill markers"
       id="path1012"
       inkscape:flatsided="true"
       sodipodi:sides="6"
       sodipodi:cx="11.360034"
       sodipodi:cy="6.1297545"
       sodipodi:r1="4.2335181"
       sodipodi:r2="3.6663342"
       sodipodi:arg1="0"
       sodipodi:arg2="0.52359878"
       inkscape:rounded="0"
       inkscape:randomized="0"
       d="M 15.593552,6.1297545 13.476793,9.7960888 H 9.2432749 l -2.116759,-3.6663343 2.116759,-3.6663342 4.2335181,0 z"
       transform="matrix(0.90923399,0,0,0.90923399,-6.081409,-1.3258611)" />
  </g>
</svg>
